<?xml version="1.0" encoding="UTF-8"?><svg id="Layer_1" xmlns="http://www.w3.org/2000/svg" viewBox="0 0 827.69 126.55"><defs><style>.cls-1{fill:#fff;}</style></defs><path d="M1,113.71V18.94h825.69v62.43c0,17.84-14.51,32.35-32.35,32.35H1Z"/><path class="cls-1" d="M825.69,19.94v61.43c0,17.31-14.04,31.35-31.35,31.35H2V19.94h823.69M827.69,17.94H0v96.77h794.34c18.39,0,33.35-14.96,33.35-33.35V17.94h0Z"/><path class="cls-1" d="M65.08,4h228.12v84.39c0,18.86-15.31,34.16-34.16,34.16H27.49V41.59c0-20.75,16.84-37.59,37.59-37.59Z"/><path d="M345.37,91.52v-24.32c0-14.92,12.14-27.06,27.06-27.06h430.58v24.32c0,14.92-12.14,27.06-27.06,27.06h-430.58Z"/><path class="cls-1" d="M801.97,41.17v23.28c0,14.37-11.65,26.03-26.03,26.03h-429.54v-23.28c0-14.37,11.65-26.03,26.03-26.03h429.54M804.04,39.1h-431.61c-15.49,0-28.1,12.6-28.1,28.1v25.35h431.61c15.49,0,28.1-12.6,28.1-28.1v-25.35h0Z"/><path class="cls-1" d="M450.08,59.04v5.23h8.61v2.81h-8.61v7.59h-3.25v-18.43h12.95v2.81h-9.7Z"/><path class="cls-1" d="M465.55,56.23h3.25v18.43h-3.25v-18.43Z"/><path class="cls-1" d="M475.84,56.23h9.28c3.33,0,4.89,1.48,4.89,4.68v2c0,2.83-1.25,4.32-3.85,4.6l5.43,7.15h-3.82l-5.54-7.1h-3.15v7.1h-3.25v-18.43ZM484.19,64.76c1.92,0,2.57-.57,2.57-2.34v-1.01c0-1.77-.65-2.37-2.57-2.37h-5.1v5.72h5.1Z"/><path class="cls-1" d="M500.33,59.04v4.76h8.61v2.78h-8.61v5.3h9.7v2.78h-12.95v-18.43h12.95v2.81h-9.7Z"/><path class="cls-1" d="M523.84,70.27v-1.25c0-2.13.62-3.3,2.34-3.98-1.46-.81-2.03-1.82-2.03-3.41v-.99c0-3.2,1.53-4.68,4.89-4.68h4.58c3.35,0,4.89,1.48,4.89,4.63v.29l-3.25.39v-.18c0-1.72-.62-2.31-2.55-2.31h-2.76c-1.9,0-2.55.6-2.55,2.37v.6c0,1.66.57,2.16,2.55,2.16h11.15v2.78h-2.47v3.61c0,3.15-1.56,4.63-4.89,4.63h-5.02c-3.35,0-4.89-1.48-4.89-4.65ZM529.64,72.14h3.17c1.92,0,2.57-.6,2.57-2.34v-3.12h-5.75c-1.92,0-2.55.57-2.55,2.31v.78c0,1.77.62,2.37,2.55,2.37Z"/><path class="cls-1" d="M554.73,70.3c0-.18,0-.21.03-.29l3.22-.39v.18c0,1.74.65,2.34,2.57,2.34h3.17c1.9,0,2.55-.6,2.55-2.37v-.44c0-1.43-.49-1.85-2.52-2.13l-4.5-.65c-3.25-.47-4.42-1.59-4.42-4.29v-1.61c0-3.2,1.56-4.68,4.89-4.68h4.81c3.35,0,4.89,1.48,4.89,4.63v.29l-3.25.39v-.18c0-1.72-.65-2.31-2.55-2.31h-2.94c-1.92,0-2.6.6-2.6,2.37v.31c0,1.46.44,1.82,2.55,2.13l4.5.65c3.28.47,4.39,1.59,4.39,4.32v1.72c0,3.17-1.53,4.65-4.89,4.65h-4.99c-3.35,0-4.91-1.48-4.91-4.63Z"/><path class="cls-1" d="M579.35,59.04v4.76h8.61v2.78h-8.61v5.3h9.7v2.78h-12.95v-18.43h12.95v2.81h-9.7Z"/><path class="cls-1" d="M594.56,70.27v-9.62c0-3.2,1.56-4.68,4.91-4.68h4.94c3.35,0,4.89,1.48,4.89,4.63v.29l-3.25.39v-.18c0-1.72-.62-2.31-2.55-2.31h-3.12c-1.92,0-2.57.6-2.57,2.37v8.63c0,1.77.65,2.37,2.57,2.37h3.12c1.92,0,2.55-.6,2.55-2.34v-.18l3.25.39v.29c0,3.15-1.53,4.63-4.89,4.63h-4.94c-3.35,0-4.91-1.48-4.91-4.65Z"/><path class="cls-1" d="M625.24,74.92h-4.58c-3.35,0-4.91-1.48-4.91-4.65v-14.04h3.25v13.55c0,1.77.65,2.37,2.57,2.37h2.76c1.9,0,2.55-.6,2.55-2.37v-13.55h3.25v14.04c0,3.17-1.53,4.65-4.89,4.65Z"/><path class="cls-1" d="M637.12,56.23h9.28c3.33,0,4.89,1.48,4.89,4.68v2c0,2.83-1.25,4.32-3.85,4.6l5.43,7.15h-3.82l-5.54-7.1h-3.15v7.1h-3.25v-18.43ZM645.46,64.76c1.92,0,2.57-.57,2.57-2.34v-1.01c0-1.77-.65-2.37-2.57-2.37h-5.1v5.72h5.1Z"/><path class="cls-1" d="M658.36,56.23h3.25v18.43h-3.25v-18.43Z"/><path class="cls-1" d="M672.95,59.04h-5.82v-2.81h14.92v2.81h-5.85v15.63h-3.25v-15.63Z"/><path class="cls-1" d="M696.16,68.27v6.4h-3.25v-6.4l-6.92-12.04h3.61l4.97,8.53,4.89-8.53h3.64l-6.94,12.04Z"/><path d="M25.49,124.55V41.59C25.49,19.76,43.25,2,65.08,2h230.12v86.39c0,19.94-16.22,36.16-36.16,36.16H25.49ZM273.77,89.52l-31.03-26.93,28.89-24.86h-11.62l-22.73,19.91-22.58-19.91h-12.31l28.88,25.17-30.88,26.62h11.24l24.88-21.52,24.72,21.52h12.54ZM145.14,89.52v-16.7h30.91c14.39,0,23.33-6.62,23.33-17.28s-8.72-17.81-23.33-17.81h-34.25l-4.12,7.58h35.47c11.89,0,17.43,3.23,17.43,10.15,0,6.4-6.16,9.92-17.35,9.92h-28.08v-6.43h-8.81v30.57h8.81ZM124.04,89.52l-32.62-48.55c-1.35-2.07-3.39-3.24-5.61-3.24s-4.22,1.17-5.58,3.2l-33.11,48.59h10.33l28.21-41.75,12.37,17.93h-9.82l-4.93,7.34h19.02l11.26,16.48h10.48Z"/><path class="cls-1" d="M293.2,4v84.39c0,18.87-15.3,34.16-34.16,34.16H27.49V41.59c0-20.76,16.83-37.59,37.59-37.59h228.12M237.28,54.97l-21.83-19.25h-18.4l31.17,27.16-33.21,28.63h17.37l24.13-20.87,23.98,20.87h18.64l-33.33-28.92,31.22-26.87h-17.77l-21.97,19.25M134.31,47.31h38.83c13.68,0,15.43,4.36,15.43,8.15,0,6.89-9.62,7.92-15.35,7.92h-26.08v-6.43h-12.81v34.57h12.81v-16.7h28.91c15.62,0,25.33-7.39,25.33-19.28s-9.71-19.81-25.33-19.81h-35.44l-6.3,11.58M43.35,91.52h15.17l27.17-40.2,8.54,12.38h-7.08l-7.62,11.34h21.72l11.26,16.48h15.28l-34.71-51.66c-1.71-2.62-4.36-4.13-7.27-4.13s-5.51,1.5-7.24,4.09l-35.23,51.7M297.2,0H65.08C42.15,0,23.49,18.66,23.49,41.59v84.96h235.55c21.04,0,38.16-17.12,38.16-38.16V0h0ZM260.76,39.73h5.48l-23.05,19.84-3.51,3.02,3.5,3.03,25.24,21.9h-6.43l-22.85-19.89-2.62-2.28-2.62,2.27-23,19.9h-5.11l25.06-21.6,3.5-3.01-3.48-3.03-23.12-20.14h6.21l20.69,18.25,2.64,2.32,2.64-2.32,20.84-18.25h0ZM142.99,39.73h33.06c13.36,0,21.33,5.91,21.33,15.81s-7.97,15.28-21.33,15.28h-32.91v16.7h-4.81v-26.57s4.81,0,4.81,0v6.43h30.08c4.43,0,8.2-.54,11.18-1.61,7.11-2.55,8.18-7.56,8.18-10.31,0-12.15-14.62-12.15-19.43-12.15h-32.1l1.95-3.58h0ZM50.91,87.52l30.97-45.45c1.02-1.52,2.41-2.34,3.94-2.34s2.94.82,3.92,2.31l.02.02.02.02,30.53,45.43h-5.67l-10.07-14.74-1.19-1.74h-16.32l2.24-3.34h12.57l-4.33-6.27-8.54-12.38-3.33-4.82-3.28,4.85-25.98,38.44h-5.48Z"/></svg>